<svg width="1384" height="389" viewBox="0 0 1384 389" fill="none" xmlns="http://www.w3.org/2000/svg">
<path d="M2.52732 183.684L4.89258 8.88525L1383.82 29.3493L1379.79 327.028C1336.74 340.195 1230.29 369.427 1148.9 381.018C1047.17 395.506 925.441 363.716 816.573 319.407C707.704 275.099 602.544 249.878 540.832 237.938C479.12 225.997 315.394 250.321 269.742 259.504C224.091 268.688 180.339 273.743 132.966 272.453C85.5927 271.163 58.8322 249.81 34.2324 228.704C14.5526 211.818 4.89576 191.655 2.52732 183.684Z" fill="url(#paint0_linear_125_7)" fill-opacity="0.4"/>
<path d="M2.3877 175.528V0.712891L1381.47 2.51812V300.224C1338.6 313.973 1232.55 344.642 1151.33 357.333C1049.8 373.196 927.653 343.056 818.195 300.224C708.737 257.393 603.245 233.598 541.377 222.493C479.51 211.389 316.127 237.925 270.604 247.726C225.081 257.526 181.401 263.173 134.015 262.524C86.629 261.875 59.5821 240.886 34.699 220.114C14.7925 203.497 4.86376 183.466 2.3877 175.528Z" fill="url(#paint1_linear_125_7)"/>
<defs>
<linearGradient id="paint0_linear_125_7" x1="73.8014" y1="251.833" x2="1383.84" y2="27.5443" gradientUnits="userSpaceOnUse">
<stop stop-color="#702CC8"/>
<stop offset="1" stop-color="#5070CF"/>
</linearGradient>
<linearGradient id="paint1_linear_125_7" x1="74.5773" y1="242.706" x2="1381.47" y2="0.71293" gradientUnits="userSpaceOnUse">
<stop stop-color="#702CC8"/>
<stop offset="1" stop-color="#5070CF"/>
</linearGradient>
</defs>
</svg>
