<?xml version="1.0" encoding="utf-8"?>
<!-- Generator: Adobe Illustrator 16.0.0, SVG Export Plug-In . SVG Version: 6.00 Build 0)  -->
<!DOCTYPE svg PUBLIC "-//W3C//DTD SVG 1.1//EN" "http://www.w3.org/Graphics/SVG/1.1/DTD/svg11.dtd">
<svg version="1.1" id="Layer_1" xmlns="http://www.w3.org/2000/svg" xmlns:xlink="http://www.w3.org/1999/xlink" x="0px" y="0px"
	 width="1384px" height="389px" viewBox="0 0 1384 389" enable-background="new 0 0 1384 389" xml:space="preserve">
<linearGradient id="SVGID_1_" gradientUnits="userSpaceOnUse" x1="348.5073" y1="-284.0962" x2="1669.5844" y2="-57.9176" gradientTransform="matrix(1 0 0 -1 -272.6602 -5.96)">
	<stop  offset="0" style="stop-color:#702CC8"/>
	<stop  offset="1" style="stop-color:#5070CF"/>
</linearGradient>
<path fill="url(#SVGID_1_)" fill-opacity="0.4" d="M-0.972,180.544L1.414,3.013l1390.357,20.784l-4.063,302.331
	c-43.407,13.374-150.74,43.063-232.805,54.834c-102.573,14.715-225.311-17.572-335.081-62.573
	c-109.772-45-215.804-70.616-278.027-82.743c-62.223-12.127-227.307,12.576-273.337,21.903s-90.144,14.462-137.91,13.152
	c-47.766-1.311-74.748-22.997-99.552-44.434C11.153,209.118,1.417,188.64-0.972,180.544z"/>
<linearGradient id="SVGID_2_" gradientUnits="userSpaceOnUse" x1="349.6714" y1="-274.707" x2="1667.6128" y2="-30.6681" gradientTransform="matrix(1 0 0 -1 -272.6602 -5.96)">
	<stop  offset="0" style="stop-color:#702CC8"/>
	<stop  offset="1" style="stop-color:#5070CF"/>
</linearGradient>
<path fill="url(#SVGID_2_)" d="M-1.112,172.26V-5.287L1389.4-3.454v302.36c-43.225,13.963-150.153,45.112-232.047,58.001
	c-102.372,16.11-225.531-14.499-335.896-58.001s-216.731-67.668-279.113-78.946c-62.38-11.278-227.117,15.673-273.017,25.628
	c-45.9,9.952-89.942,15.688-137.721,15.028s-75.05-21.976-100.139-43.073C11.395,200.667,1.384,180.322-1.112,172.26z"/>
</svg>
