<?xml version="1.0" encoding="utf-8"?>
<!-- Generator: Adobe Illustrator 16.0.0, SVG Export Plug-In . SVG Version: 6.00 Build 0)  -->
<!DOCTYPE svg PUBLIC "-//W3C//DTD SVG 1.1//EN" "http://www.w3.org/Graphics/SVG/1.1/DTD/svg11.dtd">
<svg version="1.1" id="Layer_1" xmlns="http://www.w3.org/2000/svg" xmlns:xlink="http://www.w3.org/1999/xlink" x="0px" y="0px"
	 width="50px" height="50px" viewBox="0 0 50 50" enable-background="new 0 0 50 50" xml:space="preserve">
<path d="M39.271,46.854c0,0.598-0.176,0.651-0.69,0.646c-3.174-0.025-6.351-0.014-9.524-0.014c0-1.133,0.067-2.27,0.021-3.396
	c-0.086-1.994-0.763-3.32-2.222-4.432c-0.944-0.721-2.003-1.208-3.121-1.598c-1.639-0.574-3.362-0.791-5.012-1.348
	c-6.092-2.052-9.494-8.572-7.35-14.54c1.715-4.772,5.326-7.227,10.299-7.829c2.071-0.251,3.948-1.038,5.557-2.385
	c1.225-1.025,1.828-2.356,1.852-3.958c0.029-1.828-0.023-3.658-0.023-5.488c3.176,0,6.353,0.013,9.525-0.013
	c0.516-0.005,0.689,0.05,0.689,0.646C39.248,17.716,39.248,32.284,39.271,46.854z"/>
</svg>
